<?xml version="1.0" encoding="UTF-8"?>
<svg version="1.1" xmlns="http://www.w3.org/2000/svg" width="512" height="512">
<path d="M0 0 C0.70108887 0.00572021 1.40217773 0.01144043 2.12451172 0.01733398 C10.10686726 0.29166395 15.074968 3.1011196 20.5 8.75 C24.91056056 14.41021939 26.75109067 21.03414255 26.4765625 28.171875 C25.39688485 35.32174034 22.26336197 41.48113482 17.125 46.5 C14.815 47.82 12.505 49.14 10.125 50.5 C10.125 61.06 10.125 71.62 10.125 82.5 C11.836875 80.6025 13.54875 78.705 15.3125 76.75 C55.294803 33.23468339 115.15753706 3.13736947 174.58770752 0.38598633 C177.24364144 0.32004008 179.89802519 0.28365428 182.5546875 0.26171875 C183.53462677 0.2519249 184.51456604 0.24213104 185.52420044 0.23204041 C206.3710694 0.06655964 226.66813563 -0.00030467 247.125 4.5 C248.13771973 4.71430664 249.15043945 4.92861328 250.19384766 5.14941406 C292.30148908 14.24196464 329.93726429 34.08254112 362.125 62.5 C362.65254883 62.96438477 363.18009766 63.42876953 363.72363281 63.90722656 C370.33417096 69.7576539 376.32394547 75.83915773 382.125 82.5 C382.34846359 78.05288354 382.51120917 73.60878018 382.61938477 69.15771484 C382.66449166 67.64606802 382.72580227 66.13481066 382.80395508 64.62451172 C383.5657747 55.87339972 383.5657747 55.87339972 380.18481445 48.25854492 C377.83661546 46.65153487 377.83661546 46.65153487 375.36083984 45.57250977 C370.62457968 43.30057366 368.64017871 38.82474526 366.8125 34.125 C365.21555586 25.70474908 365.69752399 17.97077902 370.34375 10.5546875 C374.0219478 5.83433366 378.38039837 2.2956846 384.125 0.5 C391.45375642 -0.3464825 399.88472615 -1.02253767 406.3828125 3.03515625 C412.93949415 8.54806123 417.51788412 13.87358886 418.4609375 22.61328125 C418.57554344 31.99950787 417.21194093 38.45975004 410.75 45.4375 C407.84082132 48.35357246 405.01827773 49.26579593 401.125 50.5 C398.25609174 92.7896929 398.25609174 92.7896929 415.09277344 129.79589844 C418.83754855 134.77873471 421.36685537 140.37401741 424 146 C424.53278564 147.12543213 425.06557129 148.25086426 425.61450195 149.41040039 C436.04594799 171.89798166 443.09346982 195.4675709 447.875 219.75 C448.07383789 220.75409912 448.27267578 221.75819824 448.47753906 222.79272461 C451.7059016 240.00465918 452.47236615 256.87069952 452.44067383 274.35546875 C452.43752921 277.96645786 452.46100668 281.57661231 452.48632812 285.1875 C452.54346953 305.86317795 450.98602913 326.41408283 446.4375 346.625 C446.05295654 348.35617065 446.05295654 348.35617065 445.66064453 350.12231445 C439.6706708 376.11153122 429.81158611 401.75015898 414.125 423.5 C413.73634766 424.03979492 413.34769531 424.57958984 412.94726562 425.13574219 C406.9033086 433.45226599 400.20446424 441.05663806 393.125 448.5 C392.25488281 449.44939453 392.25488281 449.44939453 391.3671875 450.41796875 C350.31094313 493.84681016 281.43966636 510.74905803 223.78327942 512.60772705 C220.30446746 512.66319558 216.82688854 512.69075116 213.34765625 512.703125 C212.06104599 512.70882507 210.77443573 512.71452515 209.44883728 512.72039795 C206.73354715 512.73081573 204.01828572 512.73671504 201.30297852 512.74023438 C198.58962187 512.74456971 195.87659208 512.75828496 193.16333008 512.78125 C128.48280812 513.28690607 57.69569787 501.23453222 8.125 456.5 C6.70936707 455.29045575 5.29283449 454.08196282 3.875 452.875 C-5.13821298 444.87789036 -12.73694608 436.17289605 -19.875 426.5 C-20.51139404 425.63810059 -20.51139404 425.63810059 -21.16064453 424.75878906 C-48.0627349 387.73293432 -59.90205891 339.29542789 -60.078125 294.01953125 C-60.08382507 292.84903732 -60.08952515 291.6785434 -60.09539795 290.47257996 C-60.104795 288.00264371 -60.1113607 285.53269523 -60.11523438 283.06274414 C-60.12485609 279.36776483 -60.1558969 275.6733629 -60.1875 271.97851562 C-60.25658857 256.58910016 -59.28155188 241.70111227 -56.875 226.5 C-56.7661145 225.79535614 -56.657229 225.09071228 -56.54504395 224.36471558 C-52.21480044 196.82879695 -43.38528008 169.40697115 -30.875 144.5 C-30.44719238 143.64019531 -30.01938477 142.78039062 -29.57861328 141.89453125 C-28.21443416 139.17108542 -26.83151495 136.45828752 -25.4375 133.75 C-25.03144531 132.95883789 -24.62539063 132.16767578 -24.20703125 131.35253906 C-23.58054687 130.1648291 -23.58054687 130.1648291 -22.94140625 128.953125 C-22.4928125 128.09460938 -22.04421875 127.23609375 -21.58203125 126.3515625 C-20.25252276 124.13064442 -18.96135193 122.32085131 -17.33984375 120.3359375 C-7.34136739 107.49158716 -8.52489977 93.65804959 -8.75 78 C-8.75755094 75.32672445 -8.74937821 72.6537787 -8.7421875 69.98046875 C-8.73442488 63.48597928 -8.78238297 56.99379367 -8.875 50.5 C-9.65673584 50.19908447 -10.43847168 49.89816895 -11.24389648 49.58813477 C-16.92681875 47.23787175 -21.52159427 42.88029527 -24.375 37.4375 C-26.93763652 30.75634049 -27.08546307 22.95507708 -25.21484375 16.0703125 C-22.4189999 9.84925736 -17.65681291 4.93285177 -11.63671875 1.83203125 C-7.66002622 0.42387741 -4.17176206 -0.03969757 0 0 Z " fill="#F4F4F4" transform="translate(59.875,-0.5)"/>
<path d="M0 0 C2.00032644 -0.00463583 4.000652 -0.00966151 6.00097656 -0.01504517 C11.41051898 -0.02809827 16.82004903 -0.0346003 22.22960472 -0.03905582 C25.6183679 -0.0419983 29.00712778 -0.04610528 32.39588928 -0.05056 C43.02495414 -0.06421682 53.65401137 -0.0738921 64.28308439 -0.07776189 C76.50360229 -0.08223703 88.72400804 -0.0997674 100.94449186 -0.12876248 C110.42349073 -0.15046307 119.90245823 -0.16047063 129.38148165 -0.16180301 C135.0275534 -0.16284513 140.67351948 -0.1686255 146.31956482 -0.18662262 C151.63845274 -0.20324869 156.95715717 -0.20518919 162.27606201 -0.19648361 C164.21283972 -0.19572093 166.14962791 -0.19995256 168.08638 -0.20994186 C184.11126861 -0.287654 199.9561018 1.0149748 215.33007812 5.84863281 C216.15048584 6.10136963 216.97089355 6.35410645 217.81616211 6.61450195 C251.29992709 17.39971699 277.30370784 42.25407977 293.15380859 73.13330078 C300.03730481 87.25041672 304.66791895 103.44042095 305.14257812 119.16113281 C305.17367676 119.91458984 305.20477539 120.66804688 305.23681641 121.44433594 C306.68022159 159.7127065 292.51456442 192.01584226 267.14257812 220.16113281 C264.62349062 222.72971123 261.99554856 224.97187425 259.14257812 227.16113281 C258.17320312 227.91652344 257.20382812 228.67191406 256.20507812 229.45019531 C244.30405891 238.46751283 231.16113707 245.75922523 217.01757812 250.59863281 C216.05416504 250.93266113 216.05416504 250.93266113 215.07128906 251.2734375 C200.10578459 256.01824082 185.06006197 256.60352458 169.50244141 256.56518555 C167.38300215 256.57090202 165.26356596 256.57787117 163.14413452 256.58598328 C157.43739078 256.60378861 151.73080186 256.60277026 146.02403879 256.59704089 C141.23822345 256.59393067 136.45243706 256.60006173 131.66662586 256.60607964 C120.36577901 256.6200818 109.06500782 256.61859956 97.76416016 256.60717773 C86.15284726 256.59570058 74.54176545 256.60977548 62.93048298 256.63657421 C52.9163216 256.65881105 42.90223234 256.66535067 32.88804805 256.6594978 C26.92682598 256.65614611 20.96575196 256.65842341 15.00455093 256.67574883 C9.39496697 256.6913438 3.78572244 256.68712467 -1.82384872 256.66844368 C-3.86705465 256.6647923 -5.91028645 256.66776372 -7.95346832 256.67832947 C-27.01398419 256.76927208 -44.34022002 253.79560007 -61.85742188 246.16113281 C-62.51307129 245.87786133 -63.1687207 245.59458984 -63.84423828 245.30273438 C-93.59751395 232.16454727 -117.72033494 206.76683418 -129.87841797 176.63037109 C-141.6688826 145.43125596 -143.02117924 111.01154415 -129.89355469 79.875 C-127.75808364 75.18365664 -125.36043774 70.665548 -122.85742188 66.16113281 C-122.365 65.25234375 -121.87257813 64.34355469 -121.36523438 63.40722656 C-105.17705261 34.91785583 -77.32618989 13.54359754 -45.84960938 4.71582031 C-44.10416649 4.25266764 -42.35675977 3.79684951 -40.60742188 3.34863281 C-39.8041748 3.14149658 -39.00092773 2.93436035 -38.17333984 2.72094727 C-25.60742876 -0.31993658 -12.84164646 0.00696506 0 0 Z " fill="#5F7C8A" transform="translate(172.857421875,178.8388671875)"/>
<path d="M0 0 C0.70108887 0.00572021 1.40217773 0.01144043 2.12451172 0.01733398 C10.10686726 0.29166395 15.074968 3.1011196 20.5 8.75 C24.91056056 14.41021939 26.75109067 21.03414255 26.4765625 28.171875 C25.39688485 35.32174034 22.26336197 41.48113482 17.125 46.5 C14.815 47.82 12.505 49.14 10.125 50.5 C10.125 61.06 10.125 71.62 10.125 82.5 C11.836875 80.6025 13.54875 78.705 15.3125 76.75 C55.294803 33.23468339 115.15753706 3.13736947 174.58770752 0.38598633 C177.24364144 0.32004008 179.89802519 0.28365428 182.5546875 0.26171875 C183.53462677 0.2519249 184.51456604 0.24213104 185.52420044 0.23204041 C206.3710694 0.06655964 226.66813563 -0.00030467 247.125 4.5 C248.13771973 4.71430664 249.15043945 4.92861328 250.19384766 5.14941406 C292.30148908 14.24196464 329.93726429 34.08254112 362.125 62.5 C362.65254883 62.96438477 363.18009766 63.42876953 363.72363281 63.90722656 C370.33417096 69.7576539 376.32394547 75.83915773 382.125 82.5 C382.34846359 78.05288354 382.51120917 73.60878018 382.61938477 69.15771484 C382.66449166 67.64606802 382.72580227 66.13481066 382.80395508 64.62451172 C383.5657747 55.87339972 383.5657747 55.87339972 380.18481445 48.25854492 C377.83661546 46.65153487 377.83661546 46.65153487 375.36083984 45.57250977 C370.62457968 43.30057366 368.64017871 38.82474526 366.8125 34.125 C365.21555586 25.70474908 365.69752399 17.97077902 370.34375 10.5546875 C374.0219478 5.83433366 378.38039837 2.2956846 384.125 0.5 C391.45375642 -0.3464825 399.88472615 -1.02253767 406.3828125 3.03515625 C412.93949415 8.54806123 417.51788412 13.87358886 418.4609375 22.61328125 C418.57554344 31.99950787 417.21194093 38.45975004 410.75 45.4375 C407.84082132 48.35357246 405.01827773 49.26579593 401.125 50.5 C398.25609174 92.7896929 398.25609174 92.7896929 415.09277344 129.79589844 C418.83754855 134.77873471 421.36685537 140.37401741 424 146 C424.53278564 147.12543213 425.06557129 148.25086426 425.61450195 149.41040039 C436.04594799 171.89798166 443.09346982 195.4675709 447.875 219.75 C448.07383789 220.75409912 448.27267578 221.75819824 448.47753906 222.79272461 C451.7059016 240.00465918 452.47236615 256.87069952 452.44067383 274.35546875 C452.43752921 277.96645786 452.46100668 281.57661231 452.48632812 285.1875 C452.54346953 305.86317795 450.98602913 326.41408283 446.4375 346.625 C446.05295654 348.35617065 446.05295654 348.35617065 445.66064453 350.12231445 C439.6706708 376.11153122 429.81158611 401.75015898 414.125 423.5 C413.73634766 424.03979492 413.34769531 424.57958984 412.94726562 425.13574219 C406.9033086 433.45226599 400.20446424 441.05663806 393.125 448.5 C392.25488281 449.44939453 392.25488281 449.44939453 391.3671875 450.41796875 C350.31094313 493.84681016 281.43966636 510.74905803 223.78327942 512.60772705 C220.30446746 512.66319558 216.82688854 512.69075116 213.34765625 512.703125 C212.06104599 512.70882507 210.77443573 512.71452515 209.44883728 512.72039795 C206.73354715 512.73081573 204.01828572 512.73671504 201.30297852 512.74023438 C198.58962187 512.74456971 195.87659208 512.75828496 193.16333008 512.78125 C128.48280812 513.28690607 57.69569787 501.23453222 8.125 456.5 C6.70936707 455.29045575 5.29283449 454.08196282 3.875 452.875 C-5.13821298 444.87789036 -12.73694608 436.17289605 -19.875 426.5 C-20.51139404 425.63810059 -20.51139404 425.63810059 -21.16064453 424.75878906 C-48.0627349 387.73293432 -59.90205891 339.29542789 -60.078125 294.01953125 C-60.08382507 292.84903732 -60.08952515 291.6785434 -60.09539795 290.47257996 C-60.104795 288.00264371 -60.1113607 285.53269523 -60.11523438 283.06274414 C-60.12485609 279.36776483 -60.1558969 275.6733629 -60.1875 271.97851562 C-60.25658857 256.58910016 -59.28155188 241.70111227 -56.875 226.5 C-56.7661145 225.79535614 -56.657229 225.09071228 -56.54504395 224.36471558 C-52.21480044 196.82879695 -43.38528008 169.40697115 -30.875 144.5 C-30.44719238 143.64019531 -30.01938477 142.78039062 -29.57861328 141.89453125 C-28.21443416 139.17108542 -26.83151495 136.45828752 -25.4375 133.75 C-25.03144531 132.95883789 -24.62539063 132.16767578 -24.20703125 131.35253906 C-23.58054687 130.1648291 -23.58054687 130.1648291 -22.94140625 128.953125 C-22.4928125 128.09460938 -22.04421875 127.23609375 -21.58203125 126.3515625 C-20.25252276 124.13064442 -18.96135193 122.32085131 -17.33984375 120.3359375 C-7.34136739 107.49158716 -8.52489977 93.65804959 -8.75 78 C-8.75755094 75.32672445 -8.74937821 72.6537787 -8.7421875 69.98046875 C-8.73442488 63.48597928 -8.78238297 56.99379367 -8.875 50.5 C-9.65673584 50.19908447 -10.43847168 49.89816895 -11.24389648 49.58813477 C-16.92681875 47.23787175 -21.52159427 42.88029527 -24.375 37.4375 C-26.93763652 30.75634049 -27.08546307 22.95507708 -25.21484375 16.0703125 C-22.4189999 9.84925736 -17.65681291 4.93285177 -11.63671875 1.83203125 C-7.66002622 0.42387741 -4.17176206 -0.03969757 0 0 Z M62.125 59.5 C61.52848633 59.9326416 60.93197266 60.3652832 60.31738281 60.81103516 C52.07521583 66.80722316 44.46266238 73.43782029 37.125 80.5 C36.18237305 81.40177979 36.18237305 81.40177979 35.22070312 82.32177734 C26.60598593 90.60499889 18.5330138 99.02726959 11.46240234 108.67529297 C10.54636791 109.92509971 9.62175591 111.16865198 8.68994141 112.40673828 C-0.10401971 124.10209849 -7.21175891 136.4870821 -13.875 149.5 C-14.26171875 150.2528125 -14.6484375 151.005625 -15.046875 151.78125 C-35.22851121 191.55954745 -43.27122184 236.08548444 -43.25 280.375 C-43.25172211 281.28904602 -43.25344421 282.20309204 -43.25521851 283.14483643 C-43.24310379 339.83020669 -27.10703858 396.10120712 13.58740234 437.00585938 C17.52330675 440.83052355 21.75001002 444.19679471 26.125 447.5 C27.25396619 448.38013146 28.38286917 449.26034398 29.51171875 450.140625 C61.77011689 474.92058337 101.62542747 487.26299397 141.5625 492.1875 C143.2312207 492.40090511 144.89984115 492.61509566 146.56835938 492.83007812 C151.08504157 493.40666459 155.6016623 493.97782533 160.125 494.5 C160.91102097 494.59211258 161.69704193 494.68422516 162.50688171 494.77912903 C168.68829077 495.45624101 174.81140733 495.68891166 181.02734375 495.73828125 C182.0507637 495.74798447 183.07418365 495.75768768 184.12861633 495.76768494 C187.43995122 495.79257585 190.75108087 495.80521638 194.0625 495.8125 C195.19627075 495.81511841 196.3300415 495.81773682 197.49816895 495.82043457 C217.32975617 495.82532694 236.5361427 494.48903545 256.125 491.5 C258.22389695 491.20789197 260.32285105 490.91619407 262.421875 490.625 C312.65994329 483.20107051 364.06076624 459.76479026 395.21875 418.46484375 C415.69397224 390.55169677 426.83040283 359.49928419 432.125 325.5 C432.27743164 324.56349609 432.42986328 323.62699219 432.58691406 322.66210938 C437.22085136 293.29715899 437.15264612 261.78504897 432.125 232.5 C431.95871094 231.47165039 431.79242188 230.44330078 431.62109375 229.38378906 C425.09789973 189.55606555 410.8949549 150.37778938 387.125 117.5 C386.38765625 116.47003906 385.6503125 115.44007812 384.890625 114.37890625 C382.68729805 111.37472465 380.42840846 108.4280616 378.125 105.5 C376.98417969 104.04980469 376.98417969 104.04980469 375.8203125 102.5703125 C363.36937812 87.32664518 349.22506901 72.88176307 333.125 61.5 C332.4851416 61.03754883 331.8452832 60.57509766 331.18603516 60.09863281 C310.85887512 45.50352771 288.83655276 35.27663499 265.125 27.5 C263.88621094 27.07203125 262.64742188 26.6440625 261.37109375 26.203125 C196.3778213 4.62170631 116.77037319 19.08190934 62.125 59.5 Z " fill="#010101" transform="translate(59.875,-0.5)"/>
<path d="M0 0 C2.00032644 -0.00463583 4.000652 -0.00966151 6.00097656 -0.01504517 C11.41051898 -0.02809827 16.82004903 -0.0346003 22.22960472 -0.03905582 C25.6183679 -0.0419983 29.00712778 -0.04610528 32.39588928 -0.05056 C43.02495414 -0.06421682 53.65401137 -0.0738921 64.28308439 -0.07776189 C76.50360229 -0.08223703 88.72400804 -0.0997674 100.94449186 -0.12876248 C110.42349073 -0.15046307 119.90245823 -0.16047063 129.38148165 -0.16180301 C135.0275534 -0.16284513 140.67351948 -0.1686255 146.31956482 -0.18662262 C151.63845274 -0.20324869 156.95715717 -0.20518919 162.27606201 -0.19648361 C164.21283972 -0.19572093 166.14962791 -0.19995256 168.08638 -0.20994186 C184.11126861 -0.287654 199.9561018 1.0149748 215.33007812 5.84863281 C216.15048584 6.10136963 216.97089355 6.35410645 217.81616211 6.61450195 C251.29992709 17.39971699 277.30370784 42.25407977 293.15380859 73.13330078 C300.03730481 87.25041672 304.66791895 103.44042095 305.14257812 119.16113281 C305.17367676 119.91458984 305.20477539 120.66804688 305.23681641 121.44433594 C306.68022159 159.7127065 292.51456442 192.01584226 267.14257812 220.16113281 C264.62349062 222.72971123 261.99554856 224.97187425 259.14257812 227.16113281 C258.17320312 227.91652344 257.20382812 228.67191406 256.20507812 229.45019531 C244.30405891 238.46751283 231.16113707 245.75922523 217.01757812 250.59863281 C216.05416504 250.93266113 216.05416504 250.93266113 215.07128906 251.2734375 C200.10578459 256.01824082 185.06006197 256.60352458 169.50244141 256.56518555 C167.38300215 256.57090202 165.26356596 256.57787117 163.14413452 256.58598328 C157.43739078 256.60378861 151.73080186 256.60277026 146.02403879 256.59704089 C141.23822345 256.59393067 136.45243706 256.60006173 131.66662586 256.60607964 C120.36577901 256.6200818 109.06500782 256.61859956 97.76416016 256.60717773 C86.15284726 256.59570058 74.54176545 256.60977548 62.93048298 256.63657421 C52.9163216 256.65881105 42.90223234 256.66535067 32.88804805 256.6594978 C26.92682598 256.65614611 20.96575196 256.65842341 15.00455093 256.67574883 C9.39496697 256.6913438 3.78572244 256.68712467 -1.82384872 256.66844368 C-3.86705465 256.6647923 -5.91028645 256.66776372 -7.95346832 256.67832947 C-27.01398419 256.76927208 -44.34022002 253.79560007 -61.85742188 246.16113281 C-62.51307129 245.87786133 -63.1687207 245.59458984 -63.84423828 245.30273438 C-93.59751395 232.16454727 -117.72033494 206.76683418 -129.87841797 176.63037109 C-141.6688826 145.43125596 -143.02117924 111.01154415 -129.89355469 79.875 C-127.75808364 75.18365664 -125.36043774 70.665548 -122.85742188 66.16113281 C-122.365 65.25234375 -121.87257813 64.34355469 -121.36523438 63.40722656 C-105.17705261 34.91785583 -77.32618989 13.54359754 -45.84960938 4.71582031 C-44.10416649 4.25266764 -42.35675977 3.79684951 -40.60742188 3.34863281 C-39.8041748 3.14149658 -39.00092773 2.93436035 -38.17333984 2.72094727 C-25.60742876 -0.31993658 -12.84164646 0.00696506 0 0 Z M-91.85742188 52.16113281 C-92.58316406 52.86367187 -93.30890625 53.56621094 -94.05664062 54.29003906 C-113.26483122 74.1995429 -122.76556063 103.6639954 -122.30834961 130.89648438 C-121.35879369 157.21467263 -111.79089849 182.65355793 -93.85742188 202.16113281 C-93.38852539 202.67772461 -92.91962891 203.19431641 -92.43652344 203.7265625 C-73.71116969 224.14871205 -47.04569884 238.20369387 -19.05597878 239.44463921 C-13.64481618 239.59190431 -8.23423531 239.57884853 -2.8215332 239.56518555 C-0.75474685 239.57090142 1.31203636 239.57787034 3.3788147 239.58598328 C8.94732769 239.6037987 14.51568209 239.6027679 20.08421493 239.59704089 C24.75546674 239.59393106 29.42668888 239.60006156 34.09793645 239.60607964 C45.13180414 239.62008618 56.16559435 239.61859689 67.19946289 239.60717773 C78.52953897 239.5957101 89.85937795 239.60975843 101.18942279 239.63657421 C110.9641072 239.65883069 120.73871773 239.66534601 130.51342565 239.6594978 C136.33052808 239.65614955 142.14747876 239.65839948 147.96455956 239.67574883 C153.44199419 239.69137458 158.91908175 239.68709162 164.39650345 239.66844368 C166.38887917 239.6648001 168.38128152 239.66773998 170.37363243 239.67832947 C188.0908892 239.76519353 206.1114752 238.31807121 222.14257812 230.16113281 C223.32980469 229.58492187 224.51703125 229.00871094 225.74023438 228.41503906 C252.3561293 215.15824978 272.68109563 192.42994452 282.32250977 164.20556641 C291.61708628 135.08423406 290.09818355 104.82056724 276.01757812 77.47363281 C271.26929248 68.56687064 265.83153056 60.70378037 259.14257812 53.16113281 C258.4284375 52.34773438 257.71429688 51.53433594 256.97851562 50.69628906 C245.44189322 38.40352099 231.43153271 30.80105025 216.14257812 24.16113281 C214.94503906 23.61714844 213.7475 23.07316406 212.51367188 22.51269531 C209.08147654 21.13663554 205.82444759 20.27710609 202.20507812 19.53613281 C201.06167969 19.29636719 199.91828125 19.05660156 198.74023438 18.80957031 C191.91931824 17.58017609 185.37464778 17.01347916 178.46092224 17.02742004 C177.62345854 17.02515449 176.78599485 17.02288893 175.92315346 17.02055472 C173.13617329 17.01425949 170.34924232 17.0150412 167.56225586 17.01586914 C165.55588214 17.01287477 163.54950899 17.0094716 161.5431366 17.00569153 C156.10475699 16.9968736 150.66639314 16.99451429 145.22800708 16.99387574 C141.82471793 16.99316376 138.42143276 16.99102658 135.01814461 16.98837852 C123.12887443 16.97913099 111.23961545 16.97504272 99.3503418 16.97583008 C88.2953123 16.97643007 77.24033172 16.96589223 66.1853146 16.95008641 C56.67331796 16.93697495 47.16133723 16.93164772 37.64933163 16.93228549 C31.97765924 16.9325395 26.30603032 16.92974213 20.63436699 16.91910744 C15.29339877 16.90936613 9.952515 16.90938831 4.61154366 16.91662407 C2.6618042 16.91766259 0.71205933 16.91535107 -1.2376709 16.90926361 C-36.6712246 16.80588451 -66.49447435 26.81633409 -91.85742188 52.16113281 Z " fill="#020202" transform="translate(172.857421875,178.8388671875)"/>
<path d="M0 0 C6.17213689 1.15918815 11.67527477 2.87722065 17.375 5.5 C18.14537598 5.8511084 18.91575195 6.2022168 19.70947266 6.56396484 C22.14891891 7.69073555 24.57632829 8.83971094 27 10 C28.16595703 10.5573584 28.16595703 10.5573584 29.35546875 11.12597656 C61.16909658 26.56651034 90.47558254 51.15377562 111 80 C111.44601562 80.61762207 111.89203125 81.23524414 112.3515625 81.87158203 C138.20962697 117.8327101 154.17560618 158.3071419 161 202 C161.15098145 202.89831543 161.30196289 203.79663086 161.45751953 204.72216797 C171.32318337 264.50149245 162.53610587 334.13353261 126.73754883 384.10522461 C117.35761496 396.84118274 106.69219685 408.51183053 94 418 C93.00355469 418.7734375 92.00710938 419.546875 90.98046875 420.34375 C77.99354538 430.20240765 63.32645632 438.0169589 48.3125 444.3125 C47.26195435 444.75662231 47.26195435 444.75662231 46.19018555 445.2097168 C41.38233473 447.12744491 41.38233473 447.12744491 38 446 C39.17433594 445.41734375 40.34867187 444.8346875 41.55859375 444.234375 C58.73931798 435.55143077 73.7726938 424.94539193 88 412 C88.74507813 411.32710938 89.49015625 410.65421875 90.2578125 409.9609375 C96.57409722 403.95151681 101.81307264 396.97991649 107 390 C107.42039551 389.43990234 107.84079102 388.87980469 108.27392578 388.30273438 C114.37101865 380.06355053 119.0399822 371.28174436 123.5 362.0625 C124.27525024 360.46281372 124.27525024 360.46281372 125.06616211 358.83081055 C127.68980466 353.264806 129.77963107 348.03646772 131 342 C130.34 342.33 129.68 342.66 129 343 C130.3636372 339.49350434 131.86210045 336.06318893 133.41113281 332.63500977 C144.08768283 308.82676591 146.56500352 287.00167774 146.44683075 261.07424545 C146.4374118 258.91730232 146.43253187 256.76038305 146.42828369 254.60342407 C146.37388684 234.16429111 145.91250521 214.13309973 142 194 C141.69449219 192.31656494 141.69449219 192.31656494 141.3828125 190.59912109 C132.23750296 141.01263181 110.13823435 94.60342567 76.12109375 57.34375 C74.18168497 55.20075688 72.30670701 53.01655362 70.4375 50.8125 C67.53995895 47.48865406 64.42861675 44.60116112 61.0625 41.7578125 C59.72334765 40.61648947 58.4086429 39.44560272 57.125 38.2421875 C45.73222171 27.60596089 32.41130363 18.86358653 19 11 C17.9378125 10.36191406 16.875625 9.72382812 15.78125 9.06640625 C10.63134141 6.00068096 5.59450581 3.16151361 0 1 C0 0.67 0 0.34 0 0 Z " fill="#CCD5D9" transform="translate(331,30)"/>
<path d="M0 0 C9.03579885 6.71892735 15.87470193 16.10463214 18.15234375 27.23828125 C19.6912773 40.42599953 17.77868573 51.10835743 9.90234375 62.05078125 C3.60193539 69.56228322 -3.53702511 74.2473013 -12.84765625 77.23828125 C-13.43933594 77.4290625 -14.03101563 77.61984375 -14.640625 77.81640625 C-26.8440139 80.14908944 -37.85976481 78.29184522 -48.3359375 71.6640625 C-57.19780604 65.27458081 -64.20890935 56.25485394 -66.42578125 45.41015625 C-68.25536966 31.6543619 -66.55018023 20.14641695 -58.16015625 8.86328125 C-43.00655066 -8.6172825 -19.67911037 -12.17459366 0 0 Z " fill="#010202" transform="translate(160.84765625,245.76171875)"/>
<path d="M0 0 C25.02024409 4.07526703 48.24564636 22.7079623 62.83129883 42.65625 C74.04064882 58.76907596 82.5561916 79.14697103 83 99 C83.05027344 100.24652344 83.10054688 101.49304688 83.15234375 102.77734375 C83.99702473 132.09254226 73.57477265 160.94563143 53.7421875 182.6328125 C42.08200935 194.9289403 29.46967762 203.4801731 13.93017578 210.15966797 C12.63643768 210.72291696 11.35323054 211.31095635 10.08154297 211.92236328 C5.51991552 214.06665584 5.51991552 214.06665584 2.5625 213.6875 C1.7890625 213.3471875 1.7890625 213.3471875 1 213 C1.92039062 212.48953125 2.84078125 211.9790625 3.7890625 211.453125 C32.1824533 195.30719629 51.99664186 170.19977316 60.875 138.75 C68.88381217 108.51608608 65.55035498 76.08504549 50.1875 48.625 C45.98677004 41.65097259 41.12430221 35.30750272 36 29 C35.21689453 27.98486328 35.21689453 27.98486328 34.41796875 26.94921875 C25.59213204 15.8851295 12.41870754 7.50932255 0 1 C0 0.67 0 0.34 0 0 Z " fill="#36464E" transform="translate(378,200)"/>
<path d="M0 0 C3.44652326 2.44128731 4.78056289 3.82966874 5.5625 8 C4.84924413 11.8040313 3.67222037 13.19553891 1 16 C-1.48958623 17.6239897 -4.11206494 18.89492376 -6.79296875 20.171875 C-7.53960281 20.53976135 -8.28623688 20.90764771 -9.05549622 21.28668213 C-11.42739946 22.45263095 -13.8069862 23.60174934 -16.1875 24.75 C-18.57688456 25.91601006 -20.96459202 27.08537695 -23.35163879 28.25616455 C-24.83451451 28.98200635 -26.31908572 29.7043962 -27.8054657 30.42303467 C-31.12596732 31.87505315 -31.12596732 31.87505315 -34 34 C-32.92516357 34.52432617 -31.85032715 35.04865234 -30.74291992 35.58886719 C-26.75152887 37.53926799 -22.76680056 39.50295784 -18.78393555 41.47070312 C-17.06013584 42.3200412 -15.33455703 43.16577843 -13.60717773 44.0078125 C-11.12265664 45.2197043 -8.64484947 46.44445817 -6.16796875 47.671875 C-5.39599655 48.04495789 -4.62402435 48.41804077 -3.82865906 48.8024292 C2.9838992 52.20692295 2.9838992 52.20692295 5 56 C5.55716153 59.74094169 5.28133554 61.49359602 3.4375 64.8125 C0.99708619 67.00261496 -0.51645626 67.83902806 -3.7623291 68.20126343 C-9.02889964 67.72757088 -13.76121516 64.709445 -18.390625 62.33203125 C-19.58348266 61.73355228 -20.77699634 61.13637923 -21.97113037 60.54045105 C-24.4647446 59.29126012 -26.95182096 58.03016465 -29.43457031 56.75952148 C-32.61159446 55.1341336 -35.80042027 53.53376485 -38.99411392 51.94142628 C-42.04846853 50.41581745 -45.09431397 48.87364239 -48.140625 47.33203125 C-49.85623627 46.47240532 -49.85623627 46.47240532 -51.60650635 45.59541321 C-52.66480652 45.05192734 -53.72310669 44.50844147 -54.81347656 43.94848633 C-55.74500549 43.47470047 -56.67653442 43.00091461 -57.6362915 42.51277161 C-60.15476533 40.90095031 -61.48342982 39.56437147 -63 37 C-63.7506486 30.99481118 -63.7506486 30.99481118 -61.546875 28.07421875 C-57.94494842 25.14074787 -53.98899471 23.30935453 -49.8125 21.3125 C-48.00306517 20.42880343 -46.1944847 19.54335557 -44.38671875 18.65625 C-43.48099121 18.2128125 -42.57526367 17.769375 -41.64208984 17.3125 C-37.76337371 15.38568629 -33.94291255 13.35645086 -30.125 11.3125 C-28.74367668 10.58037605 -27.36216951 9.84859886 -25.98046875 9.1171875 C-23.99416949 8.06433771 -22.01163766 7.0063415 -20.03759766 5.93066406 C-6.52990263 -1.42470603 -6.52990263 -1.42470603 0 0 Z " fill="#010202" transform="translate(396,248)"/>
<path d="M0 0 C7.79488128 3.34628742 12.40830923 7.8015434 16.3828125 15.24609375 C18.51119512 21.63124162 18.31490965 28.9101134 15.6953125 35.12109375 C11.66474393 42.84751239 6.72613533 47.57078915 -1.6171875 50.24609375 C-10.2692475 51.56086757 -17.46422051 50.37757007 -24.6171875 45.24609375 C-30.20733799 40.36655561 -33.13082688 34.69539276 -33.93359375 27.3515625 C-34.25659077 19.06825195 -32.65092157 13.86972056 -27.3671875 7.55859375 C-19.04708579 0.56214458 -11.00258699 -3.16940192 0 0 Z " fill="#00B9D1" transform="translate(144.6171875,256.75390625)"/>
<path d="M0 0 C2.51246932 1.48215544 4.7380447 2.95826138 7.0625 4.6875 C19.3178898 13.33648206 31.89112822 17.21140175 47 16 C57.24187648 13.82389691 66.67190192 9.86539442 74.75 3.1875 C77.49425243 0.97470491 78.74149739 0.05468324 82.25 -0.6875 C85.66682754 0.16670688 87.48836811 1.56012902 90 4 C91.44430855 6.88861709 91.37688506 8.79647701 91 12 C89.0625 14.4375 89.0625 14.4375 86 17 C85.41476562 17.53496094 84.82953125 18.06992187 84.2265625 18.62109375 C70.44693029 30.47368927 51.78731244 34.84174081 34 34 C17.97148558 32.52949409 3.14333181 25.47784012 -9 15 C-11.50031654 11.24952518 -11.53603554 9.44143734 -11 5 C-7.70444829 0.4443844 -5.53504798 -0.7159104 0 0 Z " fill="#010202" transform="translate(216,350)"/>
<path d="M0 0 C1.87291969 0.00349709 1.87291969 0.00349709 3.78367615 0.00706482 C6.4213501 0.01680272 9.05685159 0.03584388 11.6940918 0.0715332 C15.0690587 0.11685186 18.44325456 0.13156247 21.81849766 0.13527012 C25.04575254 0.14077041 28.27283185 0.1641471 31.5 0.1875 C32.71047501 0.1928627 33.92095001 0.1982254 35.16810608 0.20375061 C36.29284836 0.21973801 37.41759064 0.2357254 38.57641602 0.25219727 C40.05936913 0.26815697 40.05936913 0.26815697 41.57228088 0.28443909 C44.30065515 0.57088371 45.90161346 1.05615646 48.18359375 2.55859375 C50.68391029 6.30906857 50.71962929 8.11715641 50.18359375 12.55859375 C48.5261963 15.15370439 47.81029149 16.13353339 45.18359375 17.55859375 C40.85491246 18.31804808 36.56905549 18.25882508 32.18359375 18.22265625 C30.91515625 18.22743988 29.64671875 18.23222351 28.33984375 18.2371521 C25.65928551 18.24055309 22.98101233 18.23386653 20.30078125 18.21044922 C16.8738352 18.18195917 13.44884694 18.19837076 10.02197266 18.22831154 C6.74244382 18.25077419 3.46314819 18.23502436 0.18359375 18.22265625 C-1.04359375 18.2327774 -2.27078125 18.24289856 -3.53515625 18.25332642 C-12.99398597 18.12309109 -12.99398597 18.12309109 -16.08984375 15.23583984 C-18.3912667 11.66720239 -18.5609391 9.72797771 -17.81640625 5.55859375 C-13.46466148 -1.16127285 -7.39891785 -0.11958949 0 0 Z " fill="#020202" transform="translate(239.81640625,144.44140625)"/>
<path d="M0 0 C1.49756836 -0.04350586 1.49756836 -0.04350586 3.02539062 -0.08789062 C10.41857012 -0.15192216 10.41857012 -0.15192216 14.32421875 2.20703125 C16.53901502 4.7097046 17.11977262 5.80454464 17.5625 9.125 C17.06511245 13.35279414 15.39368923 14.64067564 12.1875 17.3125 C8.44939305 19.18155348 3.98918822 18.58366522 -0.125 18.625 C-1.07568359 18.65400391 -2.02636719 18.68300781 -3.00585938 18.71289062 C-7.44991318 18.75326288 -10.05651499 18.7736984 -13.91796875 16.41796875 C-16.18203351 13.90182255 -16.75039558 12.87143979 -17.125 9.5 C-16.74085642 5.5817355 -15.51993683 4.09956733 -12.8125 1.3125 C-8.95634631 -0.61557685 -4.24200167 0.04060627 0 0 Z " fill="#0B0B0B" transform="translate(255.8125,118.6875)"/>
<path d="M0 0 C3.80470451 0.7133821 5.41196019 1.67868421 8 4.5625 C9.0625 8 9.0625 8 9 11.5625 C7.23358828 14.36439446 5.96950178 16.07774911 3 17.5625 C-1.0130324 18.09757099 -2.53928033 17.89301628 -5.875 15.5 C-8 12.5625 -8 12.5625 -8.625 9.0625 C-7.67703424 3.75389177 -5.38444917 1.00958422 0 0 Z " fill="#01A3EC" transform="translate(452,16.4375)"/>
<path d="M0 0 C2.4375 1.625 2.4375 1.625 4 4 C4.72125695 8.40768137 4.52001338 10.25937488 1.9375 13.9375 C-1 16 -1 16 -4.5 16.6875 C-8 16 -8 16 -11 13.4375 C-13 10 -13 10 -13.125 6.375 C-10.80869361 -0.57391916 -6.85196698 -1.99329948 0 0 Z " fill="#01A3EC" transform="translate(64,18)"/>
<path d="M0 0 C0.66 0 1.32 0 2 0 C1.34 2.31 0.68 4.62 0 7 C-1.32 7.33 -2.64 7.66 -4 8 C-2.87548273 5.0280615 -1.77706209 2.66559313 0 0 Z " fill="#E1E2E2" transform="translate(464,365)"/>
</svg>
